<svg xmlns="http://www.w3.org/2000/svg" width="32.5" height="28.608" viewBox="0 0 32.5 28.608">
    <defs>
        <style>
            .cls-1{fill:#fff;fill-rule:evenodd}
        </style>
    </defs>
    <g id="cloud-memorystore" transform="translate(-24.25 -20.892)">
        <g id="Group_408" data-name="Group 408" transform="translate(.5 .5)">
            <g id="junyvvuc705">
                <g id="Group_407" data-name="Group 407">
                    <g id="junyvvuc708" transform="translate(23.75 24.044)">
                        <path id="Path_2070" d="M0 0h5.625v3.043H0z" class="cls-1" data-name="Path 2070"/>
                    </g>
                    <g id="junyvvuc709" transform="translate(23.75 30.131)">
                        <path id="Path_2071" d="M0 0h5.625v3.043H0z" class="cls-1" data-name="Path 2071"/>
                    </g>
                    <g id="junyvvuc70a" transform="translate(23.75 36.218)">
                        <path id="Path_2072" d="M0 0h5.625v3.043H0z" class="cls-1" data-name="Path 2072"/>
                    </g>
                    <g id="junyvvuc70b" transform="translate(23.75 42.305)">
                        <path id="Path_2073" d="M0 0h5.625v3.043H0z" class="cls-1" data-name="Path 2073"/>
                    </g>
                    <g id="junyvvuc70c" transform="translate(50.625 24.044)">
                        <path id="Path_2074" d="M0 0h5.625v3.043H0z" class="cls-1" data-name="Path 2074"/>
                    </g>
                    <g id="junyvvuc70d" transform="translate(50.625 30.131)">
                        <path id="Path_2075" d="M0 0h5.625v3.043H0z" class="cls-1" data-name="Path 2075"/>
                    </g>
                    <g id="junyvvuc70e" transform="translate(50.625 36.218)">
                        <path id="Path_2076" d="M0 0h5.625v3.043H0z" class="cls-1" data-name="Path 2076"/>
                    </g>
                    <g id="junyvvud70f" transform="translate(50.625 42.305)">
                        <path id="Path_2077" d="M0 0h5.625v3.043H0z" class="cls-1" data-name="Path 2077"/>
                    </g>
                    <g id="junyvvud70g" transform="translate(28.75 20.391)">
                        <path id="Path_2078" d="M0 0v28.609h22.5V0zm9.375 24.348v-8.522h-5l8.75-11.565v8.522h5z" class="cls-1" data-name="Path 2078"/>
                    </g>
                </g>
            </g>
        </g>
    </g>
</svg>
