<svg xmlns="http://www.w3.org/2000/svg" width="32.5" height="32" viewBox="0 0 32.5 32">
    <defs>
        <style>
            .cls-1{fill:#fff;fill-rule:evenodd}
        </style>
    </defs>
    <g id="gpu" transform="translate(-23 -19)">
        <g id="j4nscv9rfe">
            <g id="j4nscv9tfh" transform="translate(23 19)">
                <path id="Path_2088" d="M7.75 28v4h3.75v-4h3.75v4h3.5v-4h3v4h3.75v-4q3.25 0 3.25-3.5h3.75V21h-3.75v-3.25h3.75v-3.5h-3.75V10.5h3.75V7h-3.75q0-3.5-3.25-3.5V0H22v3.5h-3.5V0H15v3.5h-3.5V0H8v3.5Q4.5 3.5 4.5 7H0v3.5h4.5V14H0v3.5h4.5V21H0v3.5h4.5q0 3.5 3.25 3.5zM18 8.5v6h3l-5.5 7.75v-6h-3zM24.5 7H8.75a.663.663 0 0 0-.75.75v16a.663.663 0 0 0 .75.75H24.5a.663.663 0 0 0 .75-.75v-16A.663.663 0 0 0 24.5 7z" class="cls-1" data-name="Path 2088"/>
            </g>
        </g>
    </g>
</svg>
