<svg xmlns="http://www.w3.org/2000/svg" width="30.5" height="30" viewBox="0 0 30.5 30">
    <defs>
        <style>
            .cls-1{fill:#fff;fill-rule:evenodd}
        </style>
    </defs>
    <g id="compute-engine" transform="translate(94.25 449)">
        <g id="j4ns1kdzfz">
            <g id="j4ns1ke0g2" transform="translate(-94.25 -449)">
                <path id="Path_2095" d="M10.25 4V.75A.663.663 0 0 0 9.5 0h-1a.663.663 0 0 0-.75.75V4H4.5a.663.663 0 0 0-.75.75v3h-3A.663.663 0 0 0 0 8.5v1a.663.663 0 0 0 .75.75h3v3.5h-3a.663.663 0 0 0-.75.75v1a.663.663 0 0 0 .75.75h3v3.5h-3a.663.663 0 0 0-.75.75v1a.663.663 0 0 0 .75.75h3v3a.663.663 0 0 0 .75.75h3.25v3.25a.663.663 0 0 0 .75.75h1a.663.663 0 0 0 .75-.75V26H14v3.25a.663.663 0 0 0 .75.75h1a.663.663 0 0 0 .75-.75V26h3.75v3.25A.663.663 0 0 0 21 30h1a.663.663 0 0 0 .75-.75V26H26a.663.663 0 0 0 .75-.75v-3h3a.663.663 0 0 0 .75-.75v-1a.663.663 0 0 0-.75-.75h-3v-3.5h3a.663.663 0 0 0 .75-.75v-1a.663.663 0 0 0-.75-.75h-3v-3.5h3a.663.663 0 0 0 .75-.75v-1a.663.663 0 0 0-.75-.75h-3v-3A.663.663 0 0 0 26 4h-3.25V.75A.663.663 0 0 0 22 0h-1a.663.663 0 0 0-.75.75V4H16.5V.75a.663.663 0 0 0-.75-.75h-1a.663.663 0 0 0-.75.75V4zm1.25 6.5a.663.663 0 0 0-.75.75v7.5a.663.663 0 0 0 .75.75H19a.663.663 0 0 0 .75-.75v-7.5a.663.663 0 0 0-.75-.75zM7 6.5a.663.663 0 0 0-.75.75v15.5a.663.663 0 0 0 .75.75h16.5a.663.663 0 0 0 .75-.75V7.25a.663.663 0 0 0-.75-.75z" class="cls-1" data-name="Path 2095"/>
            </g>
        </g>
    </g>
</svg>
